<svg width="24" height="24" viewBox="0 0 24 24" fill="none" xmlns="http://www.w3.org/2000/svg">
<path d="M18 4.73911L17.9999 2.99998C17.9999 2.4477 17.5522 2 16.9999 2H14.0555C11.2941 2 9.05555 4.23858 9.05555 7V9.11229C9.05555 9.25036 8.94362 9.36229 8.80555 9.36229H7C6.44772 9.36229 6 9.81001 6 10.3623V12.3043C6 12.8566 6.44771 13.3043 7 13.3043H8.80563C8.9437 13.3043 9.05563 13.4163 9.05563 13.5543V21C9.05563 21.5523 9.50334 22 10.0556 22H12.9444C13.4967 22 13.9444 21.5523 13.9444 21V13.5543C13.9444 13.4163 14.0563 13.3043 14.1944 13.3043H16.3889C16.9411 13.3043 17.3889 12.8566 17.3889 12.3043V10.3623C17.3889 9.81001 16.9411 9.36229 16.3889 9.36229H14.2407C13.9646 9.36229 13.7407 9.13843 13.7407 8.86229V7.73913C13.7407 6.63456 14.6362 5.73913 15.7407 5.73913H17C17.5523 5.73913 18 5.2914 18 4.73911Z" fill="black"/>
</svg>
