<svg width="24" height="24" viewBox="0 0 24 24" fill="none" xmlns="http://www.w3.org/2000/svg">
<path fill-rule="evenodd" clip-rule="evenodd" d="M17 3H7C4.79086 3 3 4.79086 3 7V17C3 19.2091 4.79086 21 7 21H17C19.2091 21 21 19.2091 21 17V7C21 4.79086 19.2091 3 17 3ZM16 12C16 14.2091 14.2091 16 12 16C9.79086 16 8 14.2091 8 12C8 9.79086 9.79086 8 12 8C14.2091 8 16 9.79086 16 12ZM17.25 8C17.9404 8 18.5 7.44036 18.5 6.75C18.5 6.05964 17.9404 5.5 17.25 5.5C16.5596 5.5 16 6.05964 16 6.75C16 7.44036 16.5596 8 17.25 8Z" fill="black"/>
</svg>
