<svg width="24" height="24" viewBox="0 0 24 24" fill="none" xmlns="http://www.w3.org/2000/svg">
<path d="M3.62764 3.80697C3.3722 3.47854 3.60625 3 4.02232 3H6.02183C6.63901 3 7.22162 3.28495 7.60054 3.77212L20.3724 20.193C20.6278 20.5215 20.3938 21 19.9777 21H17.9782C17.361 21 16.7784 20.7151 16.3995 20.2279L3.62764 3.80697Z" fill="black"/>
<path d="M3.29289 19.2929L8.43056 14.1552C8.64322 13.9426 8.99415 13.9644 9.17879 14.2018L9.79751 14.9973C9.95232 15.1963 9.93469 15.4795 9.75639 15.6578L4.70711 20.7071C4.31658 21.0976 3.68342 21.0976 3.29289 20.7071C2.90237 20.3166 2.90237 19.6834 3.29289 19.2929Z" fill="black"/>
<path d="M20.7071 4.70711L15.5694 9.84478C15.3568 10.0574 15.0058 10.0356 14.8212 9.79819L14.2025 9.0027C14.0477 8.80365 14.0653 8.52048 14.2436 8.34217L19.2929 3.29289C19.6834 2.90237 20.3166 2.90237 20.7071 3.29289C21.0976 3.68342 21.0976 4.31658 20.7071 4.70711Z" fill="black"/>
</svg>
