<svg width="24" height="24" viewBox="0 0 24 24" fill="none" xmlns="http://www.w3.org/2000/svg">
<path d="M6.5 6H3C2.44772 6 2 6.44772 2 7V10C2 10.5523 2.44771 11 3 11H6.07716C6.30125 11 6.40687 11.2668 6.23268 11.4078C5.36356 12.1112 4.28779 12.6049 2.88554 12.8689C2.38479 12.9631 2 13.3855 2 13.895V17C2 17.5523 2.44848 18.004 2.99892 17.9589C6.65283 17.6597 10.1667 15.75 12 13L9.6809 17.6382C9.59779 17.8044 9.71866 18 9.90451 18H15.382C15.7607 18 16.107 17.786 16.2764 17.4472L21.8191 6.3618C21.9022 6.19558 21.7813 6 21.5955 6H16.5542C16.2095 6 15.889 6.17762 15.7063 6.47L13.962 9.2608C13.8289 9.47379 13.5 9.37947 13.5 9.1283V7C13.5 6.44772 13.0523 6 12.5 6H10.193C9.77616 6 9.40437 6.25927 9.25167 6.64714C8.84185 7.68813 8.41985 8.61646 7.92557 9.42213C7.79909 9.62829 7.5 9.53467 7.5 9.2928V7C7.5 6.44772 7.05228 6 6.5 6Z" fill="black"/>
</svg>
